<?xml version="1.0" encoding="UTF-8" standalone="no"?>
<!-- Generator: Adobe Illustrator 16.0.0, SVG Export Plug-In . SVG Version: 6.00 Build 0)  -->

<svg
   xmlns:dc="http://purl.org/dc/elements/1.1/"
   xmlns:cc="http://creativecommons.org/ns#"
   xmlns:rdf="http://www.w3.org/1999/02/22-rdf-syntax-ns#"
   xmlns:svg="http://www.w3.org/2000/svg"
   xmlns="http://www.w3.org/2000/svg"
   xmlns:sodipodi="http://sodipodi.sourceforge.net/DTD/sodipodi-0.dtd"
   xmlns:inkscape="http://www.inkscape.org/namespaces/inkscape"
   version="1.1"
   id="Layer_3"
   x="0px"
   y="0px"
   width="100px"
   height="100px"
   viewBox="0 0 100 100"
   enable-background="new 0 0 100 100"
   xml:space="preserve"
   inkscape:version="0.48.5 r10040"
   sodipodi:docname="500px.svg"><metadata
     id="metadata3072"><rdf:RDF><cc:Work
         rdf:about=""><dc:format>image/svg+xml</dc:format><dc:type
           rdf:resource="http://purl.org/dc/dcmitype/StillImage" /></cc:Work></rdf:RDF></metadata><defs
     id="defs3070" /><sodipodi:namedview
     pagecolor="#ffffff"
     bordercolor="#666666"
     borderopacity="1"
     objecttolerance="10"
     gridtolerance="10"
     guidetolerance="10"
     inkscape:pageopacity="0"
     inkscape:pageshadow="2"
     inkscape:window-width="1301"
     inkscape:window-height="744"
     id="namedview3068"
     showgrid="false"
     inkscape:zoom="5.97"
     inkscape:cx="50"
     inkscape:cy="50"
     inkscape:window-x="1431"
     inkscape:window-y="24"
     inkscape:window-maximized="1"
     inkscape:current-layer="Layer_3" /><g
     id="g3060"
     style="fill:#333333"><path
       fill-rule="evenodd"
       clip-rule="evenodd"
       d="M73.462,49.016c-1.588,0.21-2.898,0.996-4.133,1.942   c-1.376,1.055-2.53,2.344-3.718,3.595c-0.16,0.168-0.089,0.256,0.028,0.387c0.835,0.935,1.697,1.844,2.675,2.631   c1.624,1.307,3.382,2.313,5.523,2.511c2.412,0.224,4.365-0.905,5.229-3.09c0.299-0.756,0.424-1.546,0.428-2.47   c0.01-0.231-0.029-0.571-0.071-0.911C79.042,50.578,76.488,48.616,73.462,49.016z"
       id="path3062"
       style="fill:#333333" /><path
       fill-rule="evenodd"
       clip-rule="evenodd"
       d="M53.331,50.882c-1.028-0.741-2.111-1.402-3.356-1.711   c-1.896-0.469-3.621-0.2-4.969,1.343c-1.046,1.197-1.545,2.614-1.543,4.302c0.012,0.152,0.025,0.402,0.047,0.651   c0.205,2.349,1.773,4.114,4.047,4.529c1.249,0.229,2.463,0.063,3.642-0.396c2.515-0.98,4.433-2.743,6.185-4.723   c0.128-0.146,0.064-0.217-0.036-0.322C56.093,53.24,54.813,51.949,53.331,50.882z"
       id="path3064"
       style="fill:#333333" /><path
       fill-rule="evenodd"
       clip-rule="evenodd"
       d="M50,1.125C23.008,1.125,1.125,23.007,1.125,50S23.008,98.875,50,98.875   S98.875,76.993,98.875,50S76.992,1.125,50,1.125z M74.121,66.775c-3.091-0.036-5.729-1.234-8.136-3.059   c-1.572-1.193-2.919-2.624-4.215-4.101c-0.218-0.248-0.319-0.303-0.583-0.028c-1.324,1.375-2.582,2.819-4.07,4.03   c-1.881,1.531-3.957,2.682-6.389,3.012c-4.3,0.584-8.013-0.549-10.9-3.922c-0.654-0.765-1.147-1.637-1.552-2.558   c-0.052-0.116-0.066-0.256-0.198-0.354c-0.566,1.222-1.268,2.347-2.188,3.325c-2.317,2.464-5.176,3.749-8.549,3.868   c-2.438,0.086-4.826-0.225-7.05-1.279c-3.725-1.766-5.773-4.705-6.027-8.854c-0.02-0.316,0.068-0.396,0.382-0.394   c2.003,0.014,4.007,0.014,6.01,0c0.301-0.002,0.385,0.086,0.436,0.38c0.386,2.287,1.615,3.878,3.919,4.45   c3.215,0.797,6.168-1.026,7.013-4.335c0.568-2.227,0.323-4.356-1.154-6.211c-0.979-1.231-2.311-1.831-3.874-1.941   c-2.249-0.158-4.089,0.583-5.417,2.45c-0.123,0.175-0.268,0.218-0.467,0.217c-1.806-0.005-3.611-0.01-5.417,0.003   c-0.313,0.002-0.378-0.085-0.324-0.384c0.937-5.209,1.866-10.42,2.796-15.631c0.127-0.713,0.258-1.426,0.374-2.14   c0.038-0.234,0.128-0.321,0.381-0.32c5.997,0.008,11.993,0.008,17.99,0c0.286-0.001,0.349,0.093,0.347,0.361   c-0.013,1.607-0.016,3.216,0.002,4.823c0.002,0.328-0.081,0.417-0.414,0.416c-4.296-0.011-8.592-0.003-12.889-0.015   c-0.356-0.001-0.515,0.058-0.582,0.459c-0.377,2.286-0.795,4.566-1.195,6.849c-0.018,0.097-0.086,0.229,0.02,0.292   c0.116,0.071,0.182-0.069,0.25-0.136c1.969-1.896,4.37-2.475,7.019-2.333c2.548,0.136,4.723,1.092,6.517,2.904   c0.749,0.756,1.331,1.63,1.801,2.582c0.051,0.104,0.104,0.207,0.194,0.389c0.507-1.337,1.133-2.503,2.021-3.513   c1.947-2.214,4.408-3.408,7.333-3.678c4.122-0.381,7.509,1.211,10.475,3.917c1.229,1.121,2.317,2.377,3.385,3.649   c0.228,0.271,0.327,0.295,0.568,0.009c1.375-1.633,2.745-3.274,4.438-4.602c1.952-1.53,4.102-2.635,6.596-2.927   c6.165-0.722,11.317,2.635,12.63,8.999c0.551,2.676,0.382,5.323-0.546,7.902C83.164,64.114,79.193,66.835,74.121,66.775z"
       id="path3066"
       style="fill:#333333" /></g></svg>