<?xml version="1.0" encoding="UTF-8" standalone="no"?>
<!-- Generator: Adobe Illustrator 16.0.0, SVG Export Plug-In . SVG Version: 6.00 Build 0)  -->

<svg
   xmlns:dc="http://purl.org/dc/elements/1.1/"
   xmlns:cc="http://creativecommons.org/ns#"
   xmlns:rdf="http://www.w3.org/1999/02/22-rdf-syntax-ns#"
   xmlns:svg="http://www.w3.org/2000/svg"
   xmlns="http://www.w3.org/2000/svg"
   xmlns:sodipodi="http://sodipodi.sourceforge.net/DTD/sodipodi-0.dtd"
   xmlns:inkscape="http://www.inkscape.org/namespaces/inkscape"
   version="1.1"
   id="Layer_3"
   x="0px"
   y="0px"
   width="100px"
   height="100px"
   viewBox="0 0 100 100"
   enable-background="new 0 0 100 100"
   xml:space="preserve"
   inkscape:version="0.48.5 r10040"
   sodipodi:docname="pinterest.svg"><metadata
     id="metadata3131"><rdf:RDF><cc:Work
         rdf:about=""><dc:format>image/svg+xml</dc:format><dc:type
           rdf:resource="http://purl.org/dc/dcmitype/StillImage" /></cc:Work></rdf:RDF></metadata><defs
     id="defs3129" /><sodipodi:namedview
     pagecolor="#ffffff"
     bordercolor="#666666"
     borderopacity="1"
     objecttolerance="10"
     gridtolerance="10"
     guidetolerance="10"
     inkscape:pageopacity="0"
     inkscape:pageshadow="2"
     inkscape:window-width="1301"
     inkscape:window-height="744"
     id="namedview3127"
     showgrid="false"
     inkscape:zoom="2.36"
     inkscape:cx="50"
     inkscape:cy="50"
     inkscape:window-x="1431"
     inkscape:window-y="24"
     inkscape:window-maximized="1"
     inkscape:current-layer="Layer_3" /><path
     d="M50,1.125C23.008,1.125,1.125,23.007,1.125,50S23.008,98.875,50,98.875S98.875,76.993,98.875,50S76.992,1.125,50,1.125z   M55.624,66.234c-4.521,0-8.773-2.444-10.229-5.219c0,0-2.432,9.645-2.943,11.507c-1.813,6.579-7.146,13.162-7.561,13.701  c-0.289,0.375-0.928,0.257-0.994-0.24c-0.113-0.838-1.475-9.139,0.127-15.91c0.801-3.4,5.383-22.814,5.383-22.814  s-1.334-2.673-1.334-6.625c0-6.205,3.596-10.837,8.074-10.837c3.807,0,5.645,2.859,5.645,6.286c0,3.828-2.436,9.552-3.693,14.856  c-1.051,4.442,2.225,8.065,6.605,8.065c7.932,0,13.273-10.188,13.273-22.261c0-9.174-6.176-16.044-17.418-16.044  c-12.697,0-20.615,9.471-20.615,20.052c0,3.646,1.078,6.221,2.764,8.21c0.773,0.915,0.883,1.283,0.602,2.333  c-0.203,0.771-0.66,2.625-0.854,3.359c-0.279,1.062-1.137,1.44-2.098,1.048c-5.846-2.387-8.572-8.793-8.572-15.994  c0-11.893,10.029-26.154,29.922-26.154c15.986,0,26.506,11.566,26.506,23.984C78.214,53.964,69.081,66.234,55.624,66.234z"
     id="path3125"
     style="fill:#333333" /></svg>