<?xml version="1.0" encoding="UTF-8" standalone="no"?>
<!-- Generator: Adobe Illustrator 16.0.0, SVG Export Plug-In . SVG Version: 6.00 Build 0)  -->

<svg
   xmlns:dc="http://purl.org/dc/elements/1.1/"
   xmlns:cc="http://creativecommons.org/ns#"
   xmlns:rdf="http://www.w3.org/1999/02/22-rdf-syntax-ns#"
   xmlns:svg="http://www.w3.org/2000/svg"
   xmlns="http://www.w3.org/2000/svg"
   xmlns:sodipodi="http://sodipodi.sourceforge.net/DTD/sodipodi-0.dtd"
   xmlns:inkscape="http://www.inkscape.org/namespaces/inkscape"
   version="1.1"
   id="Layer_6"
   x="0px"
   y="0px"
   width="100px"
   height="100px"
   viewBox="0 0 100 100"
   enable-background="new 0 0 100 100"
   xml:space="preserve"
   inkscape:version="0.48.5 r10040"
   sodipodi:docname="tumblr.svg"><metadata
     id="metadata3140"><rdf:RDF><cc:Work
         rdf:about=""><dc:format>image/svg+xml</dc:format><dc:type
           rdf:resource="http://purl.org/dc/dcmitype/StillImage" /></cc:Work></rdf:RDF></metadata><defs
     id="defs3138" /><sodipodi:namedview
     pagecolor="#ffffff"
     bordercolor="#666666"
     borderopacity="1"
     objecttolerance="10"
     gridtolerance="10"
     guidetolerance="10"
     inkscape:pageopacity="0"
     inkscape:pageshadow="2"
     inkscape:window-width="1301"
     inkscape:window-height="744"
     id="namedview3136"
     showgrid="false"
     inkscape:zoom="2.36"
     inkscape:cx="50"
     inkscape:cy="50"
     inkscape:window-x="1431"
     inkscape:window-y="24"
     inkscape:window-maximized="1"
     inkscape:current-layer="Layer_6" /><path
     fill-rule="evenodd"
     clip-rule="evenodd"
     d="M50,1.125C23.008,1.125,1.125,23.007,1.125,50S23.008,98.875,50,98.875  S98.875,76.993,98.875,50S76.992,1.125,50,1.125z M38.037,65.295l0.006-20.496c-2.891,0-5.045,0-7.646,0c0-3.322,0-6.252,0-9.574  c5.777-1.646,10.762-7.786,12.598-14.292c0.705-2.834,0.779-4.757,0.779-4.757s8.857,0,10.863,0c0,5.862,0,11.732,0,17.458  c4.346,0,8.41,0,12.705,0v11.017c-4.064,0-8.209,0-12.775,0c0,2.207,0,4.489,0,6.378c0.002,4.282-0.016,8.565,0.006,12.847  c0,11.348,10.9,6.689,11.893,6.472l3.139,10.362C66.889,83.585,38.037,90.601,38.037,65.295z"
     id="path3134"
     style="fill:#333333" /></svg>